<svg width="448" height="332" viewBox="0 0 448 332" fill="none" xmlns="http://www.w3.org/2000/svg">
<path d="M220.551 332C342.358 332 441.102 322.413 441.102 310.586C441.102 298.76 342.358 289.173 220.551 289.173C98.7441 289.173 0 298.76 0 310.586C0 322.413 98.7441 332 220.551 332Z" fill="#5D9AD1"/>
<path opacity="0.1" d="M154.995 323.155C212.407 323.155 258.949 316.173 258.949 307.56C258.949 298.948 212.407 291.966 154.995 291.966C97.5824 291.966 51.0405 298.948 51.0405 307.56C51.0405 316.173 97.5824 323.155 154.995 323.155Z" fill="black"/>
<path d="M103.191 121.378C54.3699 121.378 14.7971 160.723 14.7971 209.253C14.7971 257.783 54.3886 297.128 103.191 297.128C109.206 297.131 115.205 296.525 121.097 295.322C112.687 281.576 108.25 265.791 108.276 249.702C108.276 207.275 138.526 171.868 178.759 163.638C170.879 150.73 159.786 140.06 146.549 132.658C133.312 125.255 118.378 121.37 103.191 121.378Z" fill="#4F93C4"/>
<path opacity="0.1" d="M23.7175 211.781C23.7175 163.251 63.295 123.911 112.111 123.911C116.863 123.911 121.608 124.289 126.3 125.042C118.765 123.024 110.994 122.005 103.191 122.011C54.3699 122.011 14.7971 161.357 14.7971 209.886C14.7971 253.645 46.962 289.913 89.0681 296.635C70.3102 291.595 53.7447 280.552 41.9323 265.214C30.1199 249.877 23.7184 231.098 23.7175 211.781Z" fill="black"/>
<path d="M178.337 163C191.322 155.167 202.056 144.139 209.503 130.979C216.95 117.82 220.858 102.974 220.851 87.8751C220.851 39.3453 181.278 0 132.457 0C83.6362 0 44.0681 39.3453 44.0681 87.8751C44.0658 93.8562 44.6746 99.8222 45.885 105.681C59.7102 97.3147 75.5894 92.9027 91.7746 92.9306C134.443 92.9166 170.059 123.007 178.337 163Z" fill="#4F93C4"/>
<path opacity="0.1" d="M213.232 87.8751C213.243 101.637 209.997 115.208 203.757 127.493C197.517 139.777 188.458 150.43 177.312 158.591C177.691 160.048 178.043 161.515 178.352 163C191.336 155.167 202.07 144.139 209.517 130.979C216.964 117.82 220.872 102.974 220.865 87.8751C220.865 39.3453 181.292 0 132.471 0C131.193 0 129.924 0.0325836 128.66 0.0884453C175.692 2.07619 213.232 40.6161 213.232 87.8751Z" fill="black"/>
<path d="M174.479 202.517C173.031 203.252 171.655 204.119 170.368 205.106C169.074 206.101 168.084 207.434 167.507 208.955C166.706 207.303 166.27 205.506 165.737 203.751C164.714 200.567 163.507 197.444 162.122 194.399C164.403 193.533 166.381 192.023 167.811 190.055C170.621 192.825 173.482 195.711 174.872 199.366C175.111 199.999 175.809 200.674 175.973 201.228C176.193 202.052 175.088 202.182 174.479 202.517Z" fill="#FBE0E0"/>
<path d="M97.1035 292.213C97.1035 312.984 112.177 315.186 130.776 315.186C149.376 315.186 164.444 312.984 164.444 292.213C164.444 271.441 149.371 263.551 130.776 263.551C112.182 263.551 97.1035 271.446 97.1035 292.213Z" fill="#5D9AD1"/>
<path d="M200.791 269.984C203.846 270.942 206.695 272.458 209.191 274.453C209.379 274.569 209.514 274.753 209.57 274.965C209.636 275.431 208.99 275.64 208.522 275.775C207.117 276.171 206.26 277.46 205.244 278.466C204.228 279.471 202.598 280.267 201.413 279.462C201.102 279.225 200.83 278.94 200.608 278.619L195.607 272.14C197.302 271.196 199.085 270.416 200.931 269.812" fill="#FBE0E0"/>
<path d="M209.786 271.334C210.451 272.005 210.723 272.973 211.387 273.662C211.824 274.077 212.323 274.421 212.867 274.681L216.698 276.776C217.292 277.126 217.919 277.418 218.571 277.647C219.291 277.851 220.025 278.006 220.767 278.112C221.829 278.316 222.868 278.628 223.867 279.043C224.616 279.35 225.454 279.876 225.449 280.682C225.417 281.078 225.252 281.451 224.981 281.743C223.473 283.633 220.8 284.071 218.383 284.308C213.157 284.857 207.81 285.267 202.701 284.043C201.703 283.86 200.76 283.454 199.943 282.856C198.403 281.585 198.07 279.271 198.669 277.367C198.832 276.636 199.267 275.992 199.887 275.566C200.697 275.1 201.704 275.319 202.636 275.249C203.617 275.111 204.567 274.808 205.445 274.351C206.031 274.09 206.7 273.75 206.85 273.061C207 272.372 206.208 271.776 206.382 271.199C206.71 269.9 209.177 270.715 209.786 271.334Z" fill="#2C4F5F"/>
<path opacity="0.1" d="M209.786 271.334C210.451 272.005 210.723 272.973 211.387 273.662C211.824 274.077 212.323 274.421 212.867 274.681L216.698 276.776C217.292 277.126 217.919 277.418 218.571 277.647C219.291 277.851 220.025 278.006 220.767 278.112C221.829 278.316 222.868 278.628 223.867 279.043C224.616 279.35 225.454 279.876 225.449 280.682C225.417 281.078 225.252 281.451 224.981 281.743C223.473 283.633 220.8 284.071 218.383 284.308C213.157 284.857 207.81 285.267 202.701 284.043C201.703 283.86 200.76 283.454 199.943 282.856C198.403 281.585 198.07 279.271 198.669 277.367C198.832 276.636 199.267 275.992 199.887 275.566C200.697 275.1 201.704 275.319 202.636 275.249C203.617 275.111 204.567 274.808 205.445 274.351C206.031 274.09 206.7 273.75 206.85 273.061C207 272.372 206.208 271.776 206.382 271.199C206.71 269.9 209.177 270.715 209.786 271.334Z" fill="black"/>
<path d="M218.669 292.124L220.28 293.181C220.772 293.442 221.177 293.84 221.446 294.326C221.797 295.141 221.324 296.062 220.799 296.779C219.226 298.919 217.077 300.575 214.6 301.555C213.741 301.911 212.833 302.135 211.907 302.221C211.697 302.256 211.481 302.23 211.284 302.147C210.793 301.886 210.863 301.192 210.858 300.638C210.858 299.042 209.627 297.743 208.517 296.565C207.407 295.387 206.311 293.944 206.564 292.375C206.796 291.443 207.282 290.593 207.969 289.917C208.572 289.161 209.282 288.494 210.076 287.939C211.214 287.199 211.612 287.599 212.68 288.274C214.687 289.544 216.683 290.827 218.669 292.124Z" fill="#FBE0E0"/>
<path d="M213.443 299.917C213.88 300.027 214.338 300.033 214.778 299.934C215.218 299.835 215.629 299.635 215.976 299.349C216.669 298.772 217.229 298.054 217.62 297.245C218.013 296.528 218.354 295.785 218.641 295.02C218.978 294.121 219.287 293.13 220.083 292.585C221.019 291.924 222.396 292.185 223.361 292.822C224.325 293.46 225.056 294.405 225.885 295.224C227.837 297.161 230.408 298.385 233.049 299.186C235.69 299.987 238.429 300.387 241.141 300.904C241.685 300.976 242.211 301.145 242.695 301.402C243.791 302.067 244.161 303.552 243.852 304.791C243.543 306.029 242.733 307.053 241.848 307.984C241.11 308.853 240.196 309.556 239.165 310.046C238.295 310.362 237.379 310.535 236.453 310.558C231.962 310.86 227.45 310.509 223.061 309.516C221.45 309.078 219.81 308.753 218.154 308.543C217.147 308.454 216.126 308.482 215.119 308.412C213.108 308.275 211.141 307.76 209.322 306.895C208.88 306.732 208.508 306.423 208.269 306.02C208.137 305.649 208.109 305.25 208.189 304.865L208.859 299.028C208.92 298.52 209.088 297.887 209.599 297.808C210.109 297.729 210.432 298.227 210.736 298.609C211.327 299.311 212.136 299.798 213.035 299.993C213.934 300.188 214.873 300.081 215.705 299.689" fill="#2C4F5F"/>
<path d="M174.559 226.3C177.504 225.97 180.922 225.914 182.917 228.097C184.139 229.438 184.509 231.314 184.931 233.069C185.591 236.022 186.666 238.867 188.124 241.523C189.061 243.171 190.199 244.711 190.934 246.462C191.669 248.212 191.945 250.186 192.376 252.09C194.101 259.557 198.316 266.224 204.335 271.008C203.272 273.881 200.196 275.524 197.204 276.259C196.482 276.497 195.706 276.521 194.97 276.329C194.413 276.089 193.918 275.726 193.523 275.268C192.125 273.765 190.822 272.178 189.623 270.515C185.31 264.789 180.936 258.947 178.586 252.192C177.761 249.818 176.937 247.072 174.619 246.061C173.299 245.494 171.786 245.67 170.368 245.912C167.197 246.445 164.077 247.241 161.04 248.291C157.799 249.413 154.091 250.791 151.127 249.078C149.352 248.049 148.317 246.08 147.91 244.078C147.502 242.077 147.708 240.01 147.91 237.98C147.93 237.066 148.15 236.166 148.556 235.345C148.966 234.731 149.493 234.201 150.106 233.786C152.754 231.792 155.699 230.221 158.834 229.131C161.827 228.079 165.048 227.734 168.171 227.208C170.291 226.842 172.42 226.539 174.559 226.3Z" fill="#2C4F5F"/>
<path opacity="0.1" d="M174.559 226.3C177.504 225.97 180.922 225.914 182.917 228.097C184.139 229.438 184.509 231.314 184.931 233.069C185.591 236.022 186.666 238.867 188.124 241.523C189.061 243.171 190.199 244.711 190.934 246.462C191.669 248.212 191.945 250.186 192.376 252.09C194.101 259.557 198.316 266.224 204.335 271.008C203.272 273.881 200.196 275.524 197.204 276.259C196.482 276.497 195.706 276.521 194.97 276.329C194.413 276.089 193.918 275.726 193.523 275.268C192.125 273.765 190.822 272.178 189.623 270.515C185.31 264.789 180.936 258.947 178.586 252.192C177.761 249.818 176.937 247.072 174.619 246.061C173.299 245.494 171.786 245.67 170.368 245.912C167.197 246.445 164.077 247.241 161.04 248.291C157.799 249.413 154.091 250.791 151.127 249.078C149.352 248.049 148.317 246.08 147.91 244.078C147.502 242.077 147.708 240.01 147.91 237.98C147.93 237.066 148.15 236.166 148.556 235.345C148.966 234.731 149.493 234.201 150.106 233.786C152.754 231.792 155.699 230.221 158.834 229.131C161.827 228.079 165.048 227.734 168.171 227.208C170.291 226.842 172.42 226.539 174.559 226.3Z" fill="black"/>
<path d="M191.425 247.425C192.801 248.109 194.064 248.996 195.171 250.056C196.366 251.322 197.091 252.956 197.709 254.585C197.952 255.14 198.101 255.732 198.15 256.335C198.172 256.637 198.125 256.939 198.012 257.22C197.9 257.501 197.724 257.752 197.499 257.955C196.955 258.31 196.307 258.474 195.658 258.421C194.806 258.421 193.949 258.421 193.097 258.356C192.578 258.352 192.064 258.254 191.58 258.067C191.137 257.842 190.737 257.541 190.4 257.178C188.898 255.792 187.668 254.141 186.771 252.309C186.153 250.954 185.132 247.826 186.106 246.415C187.08 245.005 190.367 246.825 191.425 247.425Z" fill="#FBE0E0"/>
<path d="M150.111 246.941C154.47 248.338 159.111 248.487 163.667 248.91C171.33 249.623 178.901 251.111 186.26 253.351C187.768 253.817 189.309 254.32 190.522 255.321C191.507 256.227 192.342 257.282 192.994 258.449C194.191 260.261 195.275 262.146 196.239 264.091C197.068 265.85 197.7 267.694 198.468 269.477C201.055 275.449 205.147 280.658 210.348 284.601C211.284 285.323 212.357 286.105 212.6 287.264C212.711 288.012 212.588 288.776 212.249 289.452C211.125 292.054 208.793 293.949 206.344 295.397C205.295 296.02 204.134 296.649 203.619 297.757C199.901 296.23 197.133 292.971 194.834 289.694C192.535 286.417 190.489 282.884 187.539 280.165C186.242 278.964 184.767 277.921 183.741 276.478C182.182 274.281 181.76 271.274 179.663 269.579C177.565 267.885 174.512 268.104 171.8 268.369C157.909 269.715 143.912 269.559 130.055 267.903C127.175 267.564 124.216 267.126 121.72 265.65C119.224 264.175 117.281 261.419 117.632 258.556C117.964 255.875 120.207 253.752 122.713 252.704C125.218 251.657 127.981 251.466 130.673 251.163C137.374 250.428 143.77 249.218 150.111 246.941Z" fill="#2C4F5F"/>
<path d="M110.266 252.504C110.608 250.232 111.493 248.082 112.05 245.852C112.329 244.449 112.682 243.061 113.109 241.695C113.109 241.653 113.141 241.616 113.155 241.579C113.297 241.567 113.434 241.525 113.557 241.455C113.68 241.385 113.786 241.289 113.867 241.174C113.944 240.975 113.965 240.759 113.928 240.55C113.912 240.328 113.912 240.106 113.928 239.884C114.841 238.364 115.838 236.895 116.916 235.485C118.789 232.827 120.437 230.001 122.067 227.18C123.406 224.853 124.745 222.553 125.85 220.123C126.684 218.303 127.381 216.399 128.299 214.639C131.577 208.308 137.44 203.639 143.752 200.287C149.811 197.071 156.362 194.906 162.73 192.346C162.892 192.508 163.041 192.682 163.175 192.867C166.617 197.546 166.987 203.69 168.406 209.314C168.977 211.585 169.74 213.848 169.74 216.185C169.74 219.639 168.078 222.851 166.425 225.891C164.875 228.754 163.278 231.617 161.223 234.144C160.249 235.345 159.176 236.472 158.198 237.659C154.18 242.551 151.862 248.571 149.605 254.478C148.303 257.899 146.168 260.93 144.735 264.3C144.183 265.594 143.864 266.986 143.171 268.215C142.478 269.444 141.275 270.515 139.86 270.543C139.447 270.53 139.036 270.466 138.638 270.352C133.52 269.044 129.236 265.697 124.984 262.559C124.221 262.001 123.457 261.451 122.642 260.949C121.828 260.446 121.004 259.985 120.17 259.552L118.269 258.514C116.199 257.387 114.12 256.256 111.961 255.302C111.31 255.049 110.683 254.737 110.088 254.371C110.095 253.745 110.154 253.12 110.266 252.504Z" fill="#5D9AD1"/>
<path d="M177.171 202.126C183.683 202.126 188.962 196.878 188.962 190.405C188.962 183.931 183.683 178.683 177.171 178.683C170.66 178.683 165.381 183.931 165.381 190.405C165.381 196.878 170.66 202.126 177.171 202.126Z" fill="#FBE0E0"/>
<path d="M185.109 184.921C185.396 185.414 185.828 185.808 186.347 186.05C186.866 186.293 187.447 186.371 188.012 186.275C188.575 186.163 189.107 185.934 189.574 185.603C190.042 185.271 190.433 184.845 190.723 184.353C191.297 183.364 191.639 182.26 191.725 181.122C191.823 180.233 191.809 179.26 191.233 178.567C190.796 178.141 190.291 177.789 189.74 177.524C188.977 177.058 188.335 176.42 187.867 175.662C187.539 175.117 187.3 174.526 187.005 173.967C185.933 171.942 183.844 170.294 181.545 170.369C180.44 170.406 179.386 170.834 178.295 171.011C174.638 171.649 170.667 169.726 167.273 171.225C166.439 171.629 165.664 172.143 164.969 172.752C164.013 173.537 163.096 174.363 162.215 175.229C161.451 175.876 160.872 176.713 160.539 177.654C160.071 179.377 161.171 181.299 160.473 182.938C160.237 183.407 159.953 183.852 159.626 184.264C158.858 185.386 159.691 189.767 159.626 191.121C159.531 191.779 159.699 192.448 160.094 192.984C160.651 193.603 161.583 193.654 162.435 193.663H163.967C164.195 193.68 164.425 193.656 164.646 193.593C164.947 193.462 165.212 193.261 165.418 193.007C166.692 191.671 166.963 187.309 168.813 187.328C169.095 187.309 169.376 187.381 169.614 187.532C169.946 187.774 170.045 188.226 170.283 188.561C170.555 188.88 170.922 189.104 171.331 189.2C171.74 189.295 172.169 189.257 172.555 189.092C173.318 188.739 173.982 188.205 174.488 187.537C174.992 186.869 175.602 186.289 176.296 185.819C177.284 185.247 178.398 185 179.358 184.353C180.159 183.813 180.613 183.031 181.334 182.435C182.056 181.839 182.664 181.923 183.432 182.319C184.542 182.928 184.589 183.897 185.109 184.921Z" fill="#5D9AD1"/>
<path opacity="0.1" d="M157.865 205.571C160.618 205.181 163.423 205.403 166.078 206.223C166.965 206.426 167.766 206.9 168.368 207.577C168.713 208.089 168.937 208.671 169.024 209.281C169.565 212.085 169.217 214.987 168.026 217.586C167.942 217.716 167.887 217.861 167.864 218.014C167.84 218.166 167.849 218.322 167.89 218.47C168.012 218.657 168.171 218.816 168.359 218.936C168.524 219.095 168.653 219.286 168.739 219.498C168.824 219.71 168.863 219.938 168.854 220.166C168.845 220.394 168.787 220.618 168.685 220.822C168.582 221.026 168.438 221.207 168.26 221.352C168.04 221.51 167.75 221.65 167.708 221.915C167.666 222.181 167.937 222.437 168.153 222.641C168.467 222.947 168.698 223.327 168.826 223.745C168.954 224.163 168.973 224.606 168.883 225.034C168.767 225.377 168.687 225.731 168.644 226.091C168.691 226.532 168.823 226.961 169.033 227.352C169.391 228.238 169.512 229.2 169.384 230.145C169.271 230.592 169.26 231.058 169.351 231.509C169.483 231.808 169.66 232.084 169.876 232.329C170.723 233.465 170.906 235.364 169.679 236.053C170.205 236.322 170.633 236.747 170.904 237.269C171.175 237.792 171.276 238.385 171.192 238.967C171.927 238.581 172.817 239.079 173.43 239.637C174.043 240.196 174.666 240.885 175.495 240.927C176.076 240.955 176.689 240.657 177.214 240.894C178.019 241.253 177.991 242.551 178.782 242.938C179.475 243.282 180.445 242.724 181.035 243.222C181.241 243.394 181.344 243.659 181.545 243.841C181.99 244.251 182.692 244.078 183.301 244.05C184.739 243.995 186.064 244.981 186.808 246.182C187.553 247.383 187.82 248.85 188.012 250.265C188.17 251.043 188.154 251.845 187.965 252.616C187.865 252.999 187.655 253.344 187.359 253.609C187.064 253.874 186.696 254.047 186.303 254.106C179.068 254.571 171.927 252.844 164.88 251.14C162.81 250.637 160.707 250.051 158.979 248.813C157.411 247.681 156.259 246.089 155.135 244.525C153.061 241.634 150.972 238.725 149.488 235.499C147.577 231.351 146.725 226.808 145.892 222.316C145.604 221.112 145.501 219.872 145.587 218.638C145.839 217.195 146.395 215.822 147.217 214.607C148.208 212.997 149.303 211.453 150.495 209.984C152.307 207.764 155.018 205.976 157.865 205.571Z" fill="black"/>
<path d="M158.338 205.106C161.092 204.715 163.9 204.939 166.556 205.762C167.443 205.961 168.244 206.434 168.846 207.112C169.189 207.624 169.412 208.206 169.501 208.816C170.04 211.62 169.692 214.521 168.504 217.12C168.42 217.25 168.365 217.396 168.341 217.548C168.318 217.701 168.327 217.856 168.368 218.005C168.489 218.191 168.649 218.35 168.836 218.47C169.001 218.629 169.131 218.821 169.216 219.033C169.302 219.245 169.341 219.472 169.332 219.7C169.322 219.928 169.265 220.152 169.162 220.356C169.06 220.561 168.915 220.742 168.738 220.886C168.518 221.045 168.228 221.184 168.185 221.45C168.143 221.715 168.415 221.971 168.654 222.176C168.968 222.482 169.199 222.861 169.327 223.279C169.455 223.698 169.474 224.141 169.384 224.569C169.268 224.912 169.188 225.266 169.145 225.625C169.19 226.067 169.321 226.495 169.529 226.887C169.891 227.771 170.013 228.734 169.885 229.68C169.74 230.051 169.71 230.457 169.797 230.846C169.885 231.235 170.087 231.589 170.377 231.863C171.224 232.999 171.407 234.898 170.18 235.615C170.706 235.883 171.134 236.307 171.406 236.829C171.677 237.351 171.777 237.944 171.693 238.525C172.428 238.138 173.318 238.637 173.931 239.195C174.544 239.754 175.167 240.443 175.996 240.485C176.577 240.513 177.185 240.215 177.715 240.452C178.52 240.815 178.492 242.109 179.283 242.5C179.976 242.84 180.946 242.281 181.536 242.78C181.742 242.952 181.845 243.217 182.046 243.399C182.491 243.808 183.193 243.636 183.802 243.608C185.24 243.552 186.565 244.539 187.309 245.74C187.987 247.005 188.397 248.394 188.513 249.823C188.663 250.593 188.647 251.387 188.466 252.15C188.366 252.533 188.156 252.879 187.86 253.144C187.565 253.409 187.197 253.581 186.804 253.64C179.569 254.106 172.428 252.378 165.381 250.675C163.311 250.172 161.204 249.585 159.48 248.347C157.912 247.221 156.76 245.624 155.636 244.06C153.562 241.174 151.473 238.264 149.989 235.038C148.078 230.886 147.226 226.342 146.393 221.855C146.105 220.65 146.002 219.408 146.088 218.173C146.327 216.731 146.868 215.356 147.676 214.137C148.664 212.527 149.759 210.984 150.953 209.519C152.784 207.289 155.496 205.506 158.338 205.106Z" fill="#5D9AD1"/>
<path d="M425.734 122.947C427 122.707 428.203 122.212 429.268 121.492C430.333 120.771 431.239 119.841 431.928 118.759C432.618 117.677 433.076 116.466 433.276 115.2C433.475 113.935 433.411 112.642 433.088 111.402C432.765 110.162 432.189 109.001 431.396 107.991C430.603 106.981 429.611 106.144 428.479 105.531C427.348 104.918 426.102 104.542 424.819 104.427C423.535 104.312 422.242 104.46 421.019 104.862C424.687 110.148 426.357 116.554 425.734 122.947Z" fill="#87C2ED"/>
<path d="M440.339 119.162C441.605 118.923 442.808 118.427 443.874 117.707C444.939 116.987 445.844 116.057 446.534 114.974C447.223 113.892 447.682 112.681 447.881 111.415C448.081 110.15 448.017 108.857 447.693 107.617C447.37 106.377 446.794 105.216 446.002 104.207C445.209 103.197 444.216 102.359 443.085 101.746C441.953 101.133 440.708 100.758 439.424 100.642C438.141 100.527 436.848 100.675 435.624 101.077C439.293 106.364 440.963 112.77 440.339 119.162Z" fill="#87C2ED"/>
<path d="M425.734 122.947C423.386 123.392 420.955 122.931 418.935 121.66C416.915 120.388 415.457 118.4 414.857 116.1C414.257 113.799 414.56 111.357 415.705 109.27C416.849 107.183 418.749 105.607 421.019 104.862C417.84 100.286 413.325 96.7894 408.084 94.8455C402.843 92.9017 397.128 92.6037 391.71 93.992C403.015 109.006 408.215 127.703 406.273 146.358C411.493 144.826 416.135 141.779 419.602 137.608C423.069 133.437 425.204 128.332 425.734 122.947Z" fill="#87C2ED"/>
<path d="M257.249 130.684C251.981 131.805 247.163 134.448 243.401 138.282C239.638 142.116 237.099 146.969 236.102 152.232C238.369 152.184 240.577 152.951 242.321 154.391C244.065 155.831 245.228 157.849 245.596 160.073C245.963 162.297 245.512 164.578 244.323 166.498C243.135 168.418 241.29 169.847 239.127 170.522C242.225 176.028 247.155 180.29 253.07 182.574C258.985 184.858 265.516 185.023 271.54 183.04C260.336 167.99 255.234 149.3 257.249 130.684Z" fill="#87C2ED"/>
<path d="M236.112 152.232C234.76 152.257 233.429 152.57 232.209 153.151C230.989 153.732 229.91 154.567 229.044 155.599C228.178 156.632 227.546 157.838 227.19 159.135C226.835 160.432 226.765 161.79 226.984 163.117C227.203 164.443 227.707 165.707 228.462 166.823C229.217 167.939 230.204 168.88 231.357 169.582C232.51 170.285 233.801 170.733 235.144 170.895C236.486 171.057 237.848 170.93 239.137 170.522C236.01 164.964 234.939 158.493 236.112 152.232Z" fill="#87C2ED"/>
<path d="M218.884 156.282C217.532 156.306 216.201 156.62 214.982 157.201C213.762 157.782 212.683 158.617 211.817 159.649C210.951 160.682 210.319 161.888 209.963 163.185C209.608 164.482 209.537 165.84 209.757 167.167C209.976 168.493 210.48 169.757 211.235 170.873C211.989 171.989 212.976 172.93 214.129 173.632C215.282 174.335 216.574 174.783 217.916 174.945C219.259 175.107 220.621 174.98 221.909 174.572C218.785 169.014 217.715 162.543 218.884 156.282Z" fill="#87C2ED"/>
<path d="M363.118 71.0374L347.942 89.523C348.671 90.6583 349.311 91.8472 349.857 93.0795L366.565 72.7319C365.417 72.1128 364.28 71.5449 363.118 71.0374Z" fill="#87C2ED"/>
<path d="M406.273 146.358C402.798 147.362 399.157 147.67 395.561 147.264C391.965 146.857 388.487 145.745 385.327 143.992C382.167 142.238 379.388 139.878 377.153 137.049C374.918 134.219 373.271 130.977 372.306 127.509C371.342 124.042 371.08 120.418 371.536 116.849C371.991 113.28 373.156 109.836 374.961 106.718C376.766 103.6 379.176 100.87 382.051 98.6848C384.927 96.5002 388.21 94.905 391.71 93.9919C385.654 85.9889 378.049 79.2716 369.341 74.2355L373.453 77.5733L352.194 103.465C352.309 108.575 350.973 113.613 348.338 118.001C345.703 122.389 341.876 125.95 337.297 128.273C332.718 130.597 327.573 131.589 322.452 131.136C317.331 130.684 312.443 128.804 308.348 125.714C304.254 122.623 301.119 118.447 299.304 113.666C297.49 108.884 297.069 103.69 298.089 98.6813C299.11 93.6723 301.531 89.0512 305.075 85.3487C308.619 81.6462 313.141 79.0125 318.123 77.7502L316.414 76.3536L326.247 64.3853C308.76 65.663 292.278 72.9976 279.67 85.1119C267.063 97.2263 259.128 113.353 257.249 130.684C264.091 129.211 271.242 130.406 277.224 134.021C283.206 137.636 287.564 143.397 289.399 150.113C291.233 156.83 290.405 163.991 287.083 170.118C283.762 176.244 278.202 180.87 271.55 183.04C280.541 195.105 292.991 204.186 307.265 209.092C321.54 213.999 336.973 214.502 351.54 210.536C366.107 206.57 379.128 198.319 388.895 186.866C398.663 175.413 404.72 161.293 406.273 146.358ZM325.147 195.604C320.958 192.207 317.877 187.651 316.293 182.512C314.709 177.374 314.693 171.884 316.248 166.737C317.802 161.589 320.857 157.016 325.026 153.595C329.196 150.174 334.292 148.059 339.67 147.517C345.049 146.975 350.468 148.031 355.243 150.551C360.018 153.072 363.933 156.943 366.495 161.676C369.056 166.408 370.149 171.79 369.633 177.14C369.118 182.49 367.019 187.568 363.601 191.731C359.018 197.314 352.392 200.858 345.181 201.584C337.969 202.31 330.763 200.16 325.147 195.604Z" fill="#87C2ED"/>
<path d="M341.602 64.8322C340.119 64.6366 338.63 64.4815 337.134 64.3666L326.795 76.9635C328.246 77.0601 329.687 77.2734 331.103 77.6012L341.602 64.8322Z" fill="#87C2ED"/>
<path d="M342.29 83.1408L354.872 67.8161C353.58 67.3971 352.281 67.0154 350.976 66.6709L339.237 80.9669C340.254 81.5913 341.23 82.2802 342.159 83.0291L342.29 83.1408Z" fill="#87C2ED"/>
</svg>
