<svg width="48" height="64" viewBox="0 0 48 64" fill="none" xmlns="http://www.w3.org/2000/svg">
<path d="M23.5899 0C22.0404 0 20.4572 0.134737 18.8741 0.471579C9.57725 2.25684 2.16672 9.76842 0.415142 19.0653C-1.2017 27.8568 2.03198 35.9411 7.89304 41.1621C9.34146 42.4421 10.1162 44.2274 10.1162 46.1137V53.8947C10.1162 57.6 13.1478 60.6316 16.853 60.6316H17.7962C18.9751 62.6526 21.0972 64 23.5899 64C26.0825 64 28.2383 62.6526 29.3836 60.6316H30.3267C34.032 60.6316 37.0636 57.6 37.0636 53.8947V46.1137C37.0636 44.2611 37.8046 42.4421 39.2194 41.1958C44.1036 36.8842 47.1688 30.5853 47.1688 23.5789C47.1688 10.5432 36.6257 0 23.5899 0ZM30.3267 53.8947H16.853V50.5263H30.3267V53.8947ZM30.3267 47.1579H16.853V43.7895H30.3267V47.1579ZM25.2741 28.3284V37.0526H21.9057V28.3284L15.7415 22.1979L18.133 19.8063L23.5899 25.2632L29.0467 19.8063L31.4383 22.1979L25.2741 28.3284Z" fill="#40474D"/>
</svg>
