<svg width="128" height="64" viewBox="0 0 128 64" fill="none" xmlns="http://www.w3.org/2000/svg">
<path d="M64 36C72.6933 36 80.3733 38.08 86.6133 40.8C92.3733 43.36 96 49.12 96 55.36V64H32V55.4133C32 49.12 35.6267 43.36 41.3867 40.8533C47.6267 38.08 55.3067 36 64 36ZM21.3333 37.3333C27.2 37.3333 32 32.5333 32 26.6667C32 20.8 27.2 16 21.3333 16C15.4667 16 10.6667 20.8 10.6667 26.6667C10.6667 32.5333 15.4667 37.3333 21.3333 37.3333ZM27.36 43.2C25.3867 42.88 23.4133 42.6667 21.3333 42.6667C16.0533 42.6667 11.04 43.7867 6.50667 45.76C2.56 47.4667 0 51.3067 0 55.6267V64H24V55.4133C24 50.9867 25.2267 46.8267 27.36 43.2ZM106.667 37.3333C112.533 37.3333 117.333 32.5333 117.333 26.6667C117.333 20.8 112.533 16 106.667 16C100.8 16 96 20.8 96 26.6667C96 32.5333 100.8 37.3333 106.667 37.3333ZM128 55.6267C128 51.3067 125.44 47.4667 121.493 45.76C116.96 43.7867 111.947 42.6667 106.667 42.6667C104.587 42.6667 102.613 42.88 100.64 43.2C102.773 46.8267 104 50.9867 104 55.4133V64H128V55.6267ZM64 0C72.8533 0 80 7.14667 80 16C80 24.8533 72.8533 32 64 32C55.1467 32 48 24.8533 48 16C48 7.14667 55.1467 0 64 0Z" fill="#40474D"/>
</svg>
