<svg width="57" height="64" viewBox="0 0 57 64" fill="none" xmlns="http://www.w3.org/2000/svg">
<path d="M32.0063 0C18.673 0 7.82854 10.4533 7.18854 23.6089L0.361876 32.7111C-0.527013 33.8844 0.32632 35.5556 1.7841 35.5556H7.11743V46.2222C7.11743 50.1333 10.3174 53.3333 14.2285 53.3333H17.7841V64H42.673V47.36C51.0641 43.3778 56.8952 34.8089 56.8952 24.8889C56.8952 11.1289 45.7663 0 32.0063 0ZM42.673 24.8889C42.673 25.3511 42.6374 25.8133 42.6019 26.2756L45.553 28.6222C45.8374 28.8356 45.9085 29.1911 45.7308 29.5111L42.8863 34.4533C42.7085 34.7733 42.3174 34.88 42.033 34.7733L38.513 33.3511C37.7663 33.92 36.9841 34.3822 36.1308 34.7378L35.5619 38.5067C35.5263 38.8622 35.2063 39.1111 34.8508 39.1111H29.1619C28.8063 39.1111 28.5219 38.8622 28.4508 38.5067L27.9174 34.7378C27.0285 34.3822 26.2463 33.92 25.4997 33.3511L21.9797 34.7733C21.6597 34.88 21.2685 34.7733 21.0908 34.4533L18.2463 29.5111C18.0685 29.2267 18.1397 28.8356 18.4241 28.6222L21.4108 26.2756C21.3752 25.8133 21.3397 25.3511 21.3397 24.8889C21.3397 24.4267 21.4108 23.9289 21.4819 23.5022L18.4597 21.1556C18.1752 20.9422 18.1041 20.5867 18.2819 20.2311L21.1263 15.3244C21.3041 15.0044 21.6597 14.8978 21.9797 15.0044L25.5352 16.4267C26.2463 15.8933 27.0641 15.3956 27.9174 15.04L28.4508 11.2711C28.5219 10.9156 28.8063 10.6667 29.1619 10.6667H34.8508C35.2063 10.6667 35.4908 10.9156 35.5619 11.2711L36.0952 15.04C36.9485 15.3956 37.7308 15.8578 38.4774 16.4267L42.033 15.0044C42.353 14.8978 42.7441 15.0044 42.8863 15.3244L45.7308 20.2311C45.9085 20.5511 45.8374 20.9422 45.553 21.1556L42.5308 23.5022C42.6374 23.9289 42.673 24.3911 42.673 24.8889Z" fill="#40474D"/>
</svg>
